<?xml version="1.0" encoding="UTF-8" standalone="no"?>
<!-- Created with Inkscape (http://www.inkscape.org/) -->
<svg xmlns:inkscape="http://www.inkscape.org/namespaces/inkscape" xmlns:rdf="http://www.w3.org/1999/02/22-rdf-syntax-ns#" xmlns="http://www.w3.org/2000/svg" xmlns:xlink="http://www.w3.org/1999/xlink" xmlns:ns1="http://sozi.baierouge.fr" xmlns:cc="http://creativecommons.org/ns#" xmlns:sodipodi="http://sodipodi.sourceforge.net/DTD/sodipodi-0.dtd" xmlns:dc="http://purl.org/dc/elements/1.1/" id="svg2" xml:space="preserve" viewBox="0 0 67.704 61.238" version="1.1" inkscape:version="0.91 r13725">
  <g id="g10" transform="matrix(1.25 0 0 -1.25 0 61.238)">
    <g id="g12">
      <path id="path14" style="fill-rule:evenodd;fill:#979681" d="m46.676 37.792c-1.918 1.519-4.039 2.64-6.36 3.359-0.293 0.051-0.558 0.105-0.796 0.16l-1.922 2.918c-0.668 1.547-1.762 2.695-3.282 3.441-0.183 0.082-0.359 0.172-0.519 0.282 2.027-0.563 4.039-1.11 6.039-1.641 4.773-1.281 8.109-3.973 10-8.082-0.504-0.371-1.066-0.559-1.68-0.559-0.531-0.054-1-0.027-1.398 0.082l-0.082 0.04z" inkscape:connector-curvature="0"/>
      <path id="path16" style="fill-rule:evenodd;fill:#c8c0ab" d="m29.117 38.19-4.359-4.961-0.399-0.078 2.477 5.641-1.238 1.718 0.8 1.879c0.532 1.094 1.36 1.867 2.481 2.32 0.133 0.055 0.277 0.083 0.437 0.083 1.254-0.266 2.375-0.055 3.36 0.64 0.054 0.051 0.109 0.094 0.16 0.117 1.336-0.48 2.402-1.547 3.203-3.199l-0.402 0.121c-2.664-0.719-4.84-2.148-6.52-4.281zm-17.16-6.359v-0.481l-2.758-3.758-2.961 4.278c0.453 0.988 1.399 1.414 2.84 1.281 2.055-0.215 3.692 0.719 4.918 2.801l-2.039-3.719v-0.402zm0.082-1.2 0.039 0.239 0.039-0.239h-0.078z" inkscape:connector-curvature="0"/>
      <path id="path18" style="fill-rule:evenodd;fill:#cebeaf" d="m36.039 42.35 0.637-3.558v-0.243l-2.84 2.203c-0.16 0.024-0.316 0.012-0.477-0.043-1.629-0.398-3.043-1.238-4.242-2.519 1.68 2.133 3.852 3.562 6.52 4.281l0.402-0.121z" inkscape:connector-curvature="0"/>
      <path id="path20" style="fill-rule:evenodd;fill:#474136" d="m36.676 38.792 1.883-1.083 0.199-0.796-2.082 1.636v0.243z" inkscape:connector-curvature="0"/>
      <path id="path22" style="fill-rule:evenodd;fill:#746957" d="m36.676 38.792-0.637 3.558c-0.801 1.652-1.867 2.719-3.203 3.199-0.051-0.023-0.106-0.066-0.16-0.117-0.985-0.695-2.106-0.906-3.36-0.64l4.161 1.757 4.121-2.32 1.922-2.918c0.238-0.055 0.503-0.105 0.796-0.16 2.321-0.719 4.442-1.84 6.36-3.359l-8.117-0.079-1.883 1.079zm14.48-4.403c0.11-1.359 0.094-2.746-0.039-4.16-0.187-1.918-0.547-3.824-1.078-5.719-0.215 1.629-0.84 3.028-1.883 4.199l-3.84 0.719v0.242c0.161 2.719 0.84 5.375 2.043 7.961 0.133 0.051 0.266 0.094 0.399 0.118 0.398-0.106 0.867-0.133 1.398-0.079 0.614 0 1.176 0.184 1.68 0.559 0.137 0.055 0.242 0 0.32-0.16 0.614-1.067 0.949-2.293 1-3.68z" inkscape:connector-curvature="0"/>
      <path id="path24" style="fill-rule:evenodd;fill:#908e81" d="m31.676 26.831-0.078 2.679 6.558 4.199c1.52 0.083 2.481-0.574 2.883-1.957 0.453-1.734 0.891-3.496 1.32-5.281l-9.203-3.281 3.321-1.481c0.402-0.183 0.734-0.371 1-0.558 0.402-0.293 1.082-4.188 2.043-11.68l-0.481 0.078c-1.949-3.386-4.746-4.359-8.402-2.918-3.172 7.012-3.934 14.266-2.278 21.758l-0.32 0.84c0.078-0.023 0.145-0.051 0.199-0.078 1.438-0.641 2.574-1.602 3.399-2.883l0.039 0.563z" inkscape:connector-curvature="0"/>
      <path id="path26" style="fill-rule:evenodd;fill:#756f59" d="m49.996 24.311c3.442-4.535 3.309-8.227-0.398-11.082-0.028 0.027-0.055 0.066-0.078 0.121-1.387 1.309-1.895 2.934-1.524 4.879l2 6.082zm-19.758-18-5.761-4.519c-4.481-0.348-8.415 0.066-11.801 1.238l0.082 0.082c3.707 1.84 6.387 4.691 8.039 8.558 0.16-0.078 0.293-0.171 0.402-0.281 2.664-2.398 5.68-4.094 9.039-5.078z" inkscape:connector-curvature="0"/>
      <path id="path28" style="fill-rule:evenodd;fill:#6d645b" d="m42.477 26.272-0.118 0.199c-0.429 1.785-0.867 3.547-1.32 5.281-0.402 1.387-1.363 2.04-2.883 1.961l0.602 2.758v0.281c2.32-0.48 4.574-0.308 6.762 0.52 0.292 0.105 0.57 0.227 0.839 0.359-1.203-2.586-1.882-5.242-2.043-7.961v-0.238c0-0.883-0.183-1.629-0.558-2.242s-0.801-0.918-1.281-0.918zm-17.399-5.922c0.133 0.852-0.066 1.016-0.601 0.481-1.2 1.121-1.774 2.507-1.719 4.16 0.078 1.414 0.68 2.601 1.801 3.558l-1.121-0.32 0.359 3.16-2.598-1.437 3.16 3.199 0.399 0.078-0.16-0.398 1.64-2.442c0.16 0 0.305-0.012 0.438-0.039 2.269-0.32 3.933-1.492 5-3.519l-0.039-0.559c-0.825 1.277-1.961 2.238-3.399 2.879-0.054 0.027-0.121 0.051-0.199 0.078l0.32-0.84c-1.656-7.492-0.894-14.746 2.278-21.758l-0.68 0.078c-1.895 3.895-3.027 8.016-3.398 12.36-0.266 2.988-0.106 5.922 0.48 8.801l-1.961-7.52zm-12.961 10.281c-0.32-2.132-1-4.265-2.039-6.402-0.535-1.012-1.027-2.066-1.48-3.16l3.441 9.562h0.078z" inkscape:connector-curvature="0"/>
      <path id="path30" style="fill-rule:evenodd;fill:#271e0f" d="m40.676 7.229c1.121-2.293 2.75-3.652 4.883-4.078 0.398 0 0.8 0.039 1.199 0.121-2.453-1.121-4.801-0.988-7.039 0.398-0.133 0.082-0.254 0.176-0.36 0.282-3.121-2.856-6.949-3.762-11.48-2.723l12.797 6zm8.32-3.039c1.469 1.469 1.934 3.227 1.402 5.281-0.105 0.426-0.199 0.813-0.281 1.16 2.16 2.188 3.281 4.828 3.36 7.918 0.668-3.359 0.121-6.465-1.641-9.32 0.027-0.078 0.043-0.145 0.043-0.199 0.48-2.504-0.481-4.117-2.883-4.84z" inkscape:connector-curvature="0"/>
      <path id="path32" style="fill-rule:evenodd;fill:#5d5139" d="m38.559 37.709 8.117 0.083 0.082-0.04c-0.133-0.027-0.266-0.07-0.399-0.121-0.269-0.132-0.547-0.254-0.839-0.359-2.188-0.828-4.442-1-6.762-0.52v0.161l-0.199 0.796zm0.199-1.238-0.602-2.758-6.558-4.203-0.68 1 7.84 5.961zm-10.879-35.242c-2.082-1.066-4.254-1.437-6.52-1.117-4.242 0.586-8.535 1.144-12.882 1.68 0.347 0.054 0.695 0.093 1.043 0.121 0.984 0.211 1.625 0.773 1.918 1.679l-1.2 1.239 0.36 2.238 1.281-3.117c1.277 0.32 3.824 3.066 7.641 8.238 0.05 0.105 0.117 0.215 0.199 0.32 3.707 5.121 5.293 7.895 4.758 8.321 0.535 0.535 0.734 0.375 0.601-0.481-1.601-3.414-3.027-6.305-4.281-8.68-1.652-3.867-4.332-6.718-8.039-8.558l-0.082-0.082c3.386-1.172 7.32-1.586 11.801-1.238l5.761 4.519-0.281 0.398 0.68-0.078c3.656-1.441 6.453-0.468 8.402 2.918l0.481-0.078 1.918-0.558 6.558 9.316c-0.504-2.266-1.465-4.305-2.879-6.117-1.414-1.735-2.894-3.36-4.441-4.883l-12.797-6zm-19.84 15.84c-0.055-0.371-0.055-0.774 0-1.199l-1.363-5.481-4.559-3.437c2.668 3.812 4.613 7.558 5.84 11.238l0.082-1.121z" inkscape:connector-curvature="0"/>
      <path id="path34" style="fill-rule:evenodd;fill:#e4d9c5" d="m2.117 6.952v-0.039l-0.879 2.437-0.402 6.199c-0.746 4.668 0.121 9.016 2.602 13.043 0.773 1.2 1.707 2.293 2.8 3.278l2.961-4.278 2.758 3.758v0.481c0.027 0 0.055-0.012 0.082-0.039 3.172-1.176 6.371-1.266 9.598-0.282l-0.84-1.199c-0.613-1.84-1.492-3.574-2.641-5.199-0.078-0.133-0.16-0.254-0.238-0.36-2.215-3.921-5.293-6.773-9.242-8.562l-0.637 0.879-0.082 1.121c-1.227-3.68-3.172-7.426-5.84-11.238zm9.84 25.277 2.039 3.723c2.109 2.746 4.68 5.078 7.723 7 0.051 0.027 0.133 0.05 0.238 0.078h0.879c-0.293-3.227-0.957-6.399-2-9.52-0.293-0.051-0.559-0.144-0.797-0.281-2.641-1.25-5.336-1.586-8.082-1zm0.082-1.598-3.441-9.562c0.453 1.094 0.945 2.148 1.48 3.16 1.039 2.137 1.719 4.27 2.039 6.402l-0.039 0.239-0.039-0.239z" inkscape:connector-curvature="0"/>
      <path id="path36" style="fill-rule:evenodd;fill:#91847b" d="m24.359 33.151-3.16-3.199-0.402 0.359 0.84 1.199-0.801 2c1.043 3.121 1.707 6.293 2 9.52h-0.879l1.199 0.402 0.922 0.117 0.719 0.922 0.039-1.519-1.797-2.039c0.051-0.055 0.133-0.11 0.238-0.161 1.094-0.269 2.133 0.278 3.121 1.637l-0.8-1.879 1.238-1.718-2.477-5.641z" inkscape:connector-curvature="0"/>
      <path id="path38" style="fill-rule:evenodd;fill:#8b8875" d="m10.598 7.069-0.36-2.238-6.039-0.762c0 0.64-0.176 1.269-0.523 1.883-0.317 0.558-0.84 0.879-1.559 0.961v0.039l4.559 3.437 1.363 5.481 2.559-8.801z" inkscape:connector-curvature="0"/>
      <path id="path40" style="fill-rule:evenodd;fill:#665f4a" d="m40.676 7.229c1.551 1.523 3.027 3.148 4.441 4.883 1.414 1.812 2.375 3.851 2.879 6.117-0.371-1.945 0.137-3.57 1.524-4.879 0.023-0.055 0.05-0.094 0.078-0.121 3.707 2.855 3.84 6.551 0.398 11.082l0.043 0.199c0.531 1.895 0.891 3.801 1.078 5.719 0.133 1.414 0.149 2.801 0.039 4.16 0.481-0.851 0.922-1.719 1.321-2.597 1.839-4.266 2.175-8.68 1-13.243-0.079-3.093-1.2-5.73-3.36-7.918 0.082-0.347 0.176-0.734 0.281-1.16 0.532-2.054 0.067-3.812-1.402-5.281l-2.238-0.918c-0.399-0.082-0.801-0.121-1.199-0.121-2.133 0.426-3.762 1.785-4.883 4.078z" inkscape:connector-curvature="0"/>
      <path id="path42" style="fill-rule:evenodd;fill:#b7aa8e" d="m8.039 15.87c-0.055 0.425-0.055 0.828 0 1.199l0.637-0.879c3.949 1.789 7.027 4.641 9.242 8.562 0.078 0.106 0.16 0.227 0.238 0.36 0.082-5.309 0.16-8.387 0.242-9.242 0.161-1.68 0.532-2.907 1.122-3.68-3.817-5.172-6.364-7.918-7.641-8.238l-1.281 3.117-2.559 8.801z" inkscape:connector-curvature="0"/>
      <path id="path44" style="fill-rule:evenodd;fill:#92846b" d="m31.676 26.831c-1.067 2.027-2.731 3.199-5 3.519-0.133 0.027-0.278 0.039-0.438 0.039l-1.64 2.442 0.16 0.398 4.359 4.961c1.199 1.281 2.613 2.121 4.242 2.519 0.161 0.055 0.317 0.067 0.477 0.043l2.84-2.203 2.082-1.636v-0.442l-7.84-5.961 0.68-1 0.078-2.679z" inkscape:connector-curvature="0"/>
      <path id="path46" style="fill-rule:evenodd;fill:#c7bcb1" d="m26.398 42.389c-0.988-1.359-2.027-1.906-3.121-1.637-0.105 0.051-0.187 0.106-0.238 0.161l1.797 2.039-0.039 1.519c0.027 0.481 0.265 0.852 0.723 1.121 1.972 1.438 4.089 2.571 6.359 3.399l1.918-1.039c0.16-0.11 0.336-0.2 0.519-0.282 1.52-0.746 2.614-1.894 3.282-3.441l-4.121 2.32-4.161-1.757c-0.16 0-0.304-0.028-0.437-0.083-1.121-0.453-1.949-1.226-2.481-2.32z" inkscape:connector-curvature="0"/>
      <path id="path48" style="fill-rule:evenodd;fill:#ede6d8" d="m23.156 43.432-1.199-0.402c-0.105-0.028-0.187-0.051-0.238-0.078-3.043-1.922-5.614-4.254-7.723-7-1.226-2.082-2.863-3.016-4.918-2.801-1.441 0.133-2.387-0.293-2.84-1.281-1.093-0.985-2.027-2.078-2.8-3.282-2.481-4.023-3.348-8.371-2.602-13.039-0.184 0.508-0.332 1.028-0.438 1.563-0.855 4.133-0.336 8.144 1.559 12.039 1.973 4.027 4.895 7.094 8.762 9.199 3.89 2.078 7.906 3.895 12.039 5.442l0.398-0.36z" inkscape:connector-curvature="0"/>
      <path id="path50" style="fill-rule:evenodd;fill:#a79674" d="m18.156 25.112c1.149 1.625 2.028 3.359 2.641 5.199l0.402-0.359 2.598 1.437-0.359-3.16 1.121 0.32c-1.121-0.957-1.723-2.144-1.801-3.558-0.055-1.653 0.519-3.039 1.719-4.16 0.535-0.426-1.051-3.2-4.758-8.321-0.082-0.105-0.149-0.215-0.199-0.32-0.59 0.773-0.961 2-1.122 3.68-0.082 0.855-0.16 3.933-0.242 9.242z" inkscape:connector-curvature="0"/>
      <path id="path52" style="fill-rule:evenodd;fill:#807d71" d="m36.477 21.709 6 4.563c0.48 0 0.906 0.305 1.281 0.918s0.558 1.359 0.558 2.242l3.84-0.719c1.043-1.175 1.668-2.574 1.883-4.203l-0.043-0.199-2-6.078-6.558-9.32-1.918 0.558c-0.961 7.492-1.641 11.387-2.043 11.68-0.266 0.187-0.598 0.375-1 0.558z" inkscape:connector-curvature="0"/>
      <path id="path54" style="fill-rule:evenodd;fill:#a9a89e" d="m33.156 23.19 9.203 3.281 0.118-0.199-6-4.563-3.321 1.481z" inkscape:connector-curvature="0"/>
      <path id="path56" style="fill-rule:evenodd;fill:#989176" d="m25.078 20.35 1.961 7.52c-0.586-2.879-0.746-5.813-0.48-8.801 0.371-4.344 1.503-8.465 3.398-12.36l0.281-0.398c-3.359 0.984-6.375 2.68-9.039 5.078-0.109 0.11-0.242 0.203-0.402 0.281 1.254 2.375 2.68 5.266 4.281 8.68z" inkscape:connector-curvature="0"/>
      <path id="path58" style="fill-rule:evenodd;fill:#c5ad81" d="m11.957 31.831v0.398c2.746-0.586 5.441-0.25 8.082 1 0.238 0.137 0.504 0.227 0.797 0.281l0.801-2c-3.227-0.984-6.426-0.89-9.598 0.282-0.027 0.027-0.055 0.039-0.082 0.039z" inkscape:connector-curvature="0"/>
      <path id="path60" style="fill-rule:evenodd;fill:#a6a495" d="m8.477 1.792c-3.25-0.641-4.973 0.453-5.161 3.277 0 0.16 0.016 0.308 0.043 0.441l-1.121-0.281c-1.226 1.176-1.562 2.547-1 4.121l0.879-2.437c0.719-0.082 1.242-0.403 1.559-0.961 0.347-0.614 0.523-1.243 0.523-1.883l6.039 0.762 1.2-1.239c-0.293-0.906-0.934-1.468-1.918-1.679-0.348-0.028-0.696-0.067-1.043-0.121z" inkscape:connector-curvature="0"/>
    </g>
  </g>
<metadata><rdf:RDF><cc:Work><dc:format>image/svg+xml</dc:format><dc:type rdf:resource="http://purl.org/dc/dcmitype/StillImage"/><cc:license rdf:resource="http://creativecommons.org/licenses/publicdomain/"/><dc:publisher><cc:Agent rdf:about="http://openclipart.org/"><dc:title>Openclipart</dc:title></cc:Agent></dc:publisher></cc:Work><cc:License rdf:about="http://creativecommons.org/licenses/publicdomain/"><cc:permits rdf:resource="http://creativecommons.org/ns#Reproduction"/><cc:permits rdf:resource="http://creativecommons.org/ns#Distribution"/><cc:permits rdf:resource="http://creativecommons.org/ns#DerivativeWorks"/></cc:License></rdf:RDF></metadata></svg>
